<mxfile host="app.diagrams.net" modified="2021-05-18T21:54:34.349Z" agent="5.0 (Windows)" etag="l3A8ItbNkl774cq0pHpi" version="14.6.13" type="github">
  <diagram id="C5RBs43oDa-KdzZeNtuy" name="Page-1">
    <mxGraphModel dx="4369" dy="1097" grid="1" gridSize="10" guides="1" tooltips="1" connect="1" arrows="1" fold="1" page="1" pageScale="1" pageWidth="1169" pageHeight="1654" math="0" shadow="0">
      <root>
        <mxCell id="WIyWlLk6GJQsqaUBKTNV-0" />
        <mxCell id="WIyWlLk6GJQsqaUBKTNV-1" parent="WIyWlLk6GJQsqaUBKTNV-0" />
        <mxCell id="zkfFHV4jXpPFQw0GAbJ--0" value="AutoSize" style="swimlane;fontStyle=1;align=center;verticalAlign=top;childLayout=stackLayout;horizontal=1;startSize=26;horizontalStack=0;resizeParent=1;resizeLast=0;collapsible=1;marginBottom=0;rounded=0;shadow=0;strokeWidth=1;" parent="WIyWlLk6GJQsqaUBKTNV-1" vertex="1">
          <mxGeometry x="-2270" y="30" width="480" height="60" as="geometry">
            <mxRectangle x="100" y="280" width="160" height="26" as="alternateBounds" />
          </mxGeometry>
        </mxCell>
        <mxCell id="zkfFHV4jXpPFQw0GAbJ--4" value="" style="line;html=1;strokeWidth=1;align=left;verticalAlign=middle;spacingTop=-1;spacingLeft=3;spacingRight=3;rotatable=0;labelPosition=right;points=[];portConstraint=eastwest;" parent="zkfFHV4jXpPFQw0GAbJ--0" vertex="1">
          <mxGeometry y="26" width="480" height="8" as="geometry" />
        </mxCell>
        <mxCell id="zkfFHV4jXpPFQw0GAbJ--5" value="+ AutoSizeTela(Camera, mainCamera, GameObject tela, int larghezza, int altezza): void" style="text;align=left;verticalAlign=top;spacingLeft=4;spacingRight=4;overflow=hidden;rotatable=0;points=[[0,0.5],[1,0.5]];portConstraint=eastwest;" parent="zkfFHV4jXpPFQw0GAbJ--0" vertex="1">
          <mxGeometry y="34" width="480" height="26" as="geometry" />
        </mxCell>
        <mxCell id="0VeXUthnpNNuvw82r98w-10" value="ChangeInstrument" style="swimlane;fontStyle=1;align=center;verticalAlign=top;childLayout=stackLayout;horizontal=1;startSize=26;horizontalStack=0;resizeParent=1;resizeParentMax=0;resizeLast=0;collapsible=1;marginBottom=0;" parent="WIyWlLk6GJQsqaUBKTNV-1" vertex="1">
          <mxGeometry x="-1430" y="550" width="160" height="224" as="geometry" />
        </mxCell>
        <mxCell id="0VeXUthnpNNuvw82r98w-11" value="+ rightHand : GameObject&#xa;+ pen : InteractionButton&#xa;+eraser : InteractionButton&#xa;+ fill : InteractionButton&#xa;+ colorPicker : GameObject&#xa;- prevPenPress : bool&#xa;- activePen : bool&#xa;- prevErasePress : bool&#xa;- activeErase : bool&#xa;- prevFillPress : bool&#xa;- activeFill : bool&#xa;&#xa;&#xa;&#xa;" style="text;strokeColor=none;fillColor=none;align=left;verticalAlign=top;spacingLeft=4;spacingRight=4;overflow=hidden;rotatable=0;points=[[0,0.5],[1,0.5]];portConstraint=eastwest;" parent="0VeXUthnpNNuvw82r98w-10" vertex="1">
          <mxGeometry y="26" width="160" height="164" as="geometry" />
        </mxCell>
        <mxCell id="0VeXUthnpNNuvw82r98w-12" value="" style="line;strokeWidth=1;fillColor=none;align=left;verticalAlign=middle;spacingTop=-1;spacingLeft=3;spacingRight=3;rotatable=0;labelPosition=right;points=[];portConstraint=eastwest;" parent="0VeXUthnpNNuvw82r98w-10" vertex="1">
          <mxGeometry y="190" width="160" height="8" as="geometry" />
        </mxCell>
        <mxCell id="0VeXUthnpNNuvw82r98w-13" value="- Update() : void" style="text;strokeColor=none;fillColor=none;align=left;verticalAlign=top;spacingLeft=4;spacingRight=4;overflow=hidden;rotatable=0;points=[[0,0.5],[1,0.5]];portConstraint=eastwest;" parent="0VeXUthnpNNuvw82r98w-10" vertex="1">
          <mxGeometry y="198" width="160" height="26" as="geometry" />
        </mxCell>
        <mxCell id="0VeXUthnpNNuvw82r98w-17" value="Close" style="swimlane;fontStyle=1;align=center;verticalAlign=top;childLayout=stackLayout;horizontal=1;startSize=26;horizontalStack=0;resizeParent=1;resizeParentMax=0;resizeLast=0;collapsible=1;marginBottom=0;" parent="WIyWlLk6GJQsqaUBKTNV-1" vertex="1">
          <mxGeometry x="-1753" y="510" width="160" height="228" as="geometry" />
        </mxCell>
        <mxCell id="0VeXUthnpNNuvw82r98w-18" value="- file : FileManager&#xa;+ exitUI : GameObject&#xa;+ hands GameObject&#xa;+ si : Button&#xa;+ no : Button&#xa;+ annulla : Button&#xa;+ colori : GameObject&#xa;+ strumenti : GameObject&#xa;" style="text;strokeColor=none;fillColor=none;align=left;verticalAlign=top;spacingLeft=4;spacingRight=4;overflow=hidden;rotatable=0;points=[[0,0.5],[1,0.5]];portConstraint=eastwest;" parent="0VeXUthnpNNuvw82r98w-17" vertex="1">
          <mxGeometry y="26" width="160" height="124" as="geometry" />
        </mxCell>
        <mxCell id="0VeXUthnpNNuvw82r98w-19" value="" style="line;strokeWidth=1;fillColor=none;align=left;verticalAlign=middle;spacingTop=-1;spacingLeft=3;spacingRight=3;rotatable=0;labelPosition=right;points=[];portConstraint=eastwest;" parent="0VeXUthnpNNuvw82r98w-17" vertex="1">
          <mxGeometry y="150" width="160" height="8" as="geometry" />
        </mxCell>
        <mxCell id="0VeXUthnpNNuvw82r98w-20" value="- Start() : void&#xa;- SalvaEdEsci() : void&#xa;- Esci() : void&#xa;- Annulla : void&#xa;" style="text;strokeColor=none;fillColor=none;align=left;verticalAlign=top;spacingLeft=4;spacingRight=4;overflow=hidden;rotatable=0;points=[[0,0.5],[1,0.5]];portConstraint=eastwest;" parent="0VeXUthnpNNuvw82r98w-17" vertex="1">
          <mxGeometry y="158" width="160" height="70" as="geometry" />
        </mxCell>
        <mxCell id="0VeXUthnpNNuvw82r98w-21" value="ColorPicker" style="swimlane;fontStyle=1;align=center;verticalAlign=top;childLayout=stackLayout;horizontal=1;startSize=26;horizontalStack=0;resizeParent=1;resizeParentMax=0;resizeLast=0;collapsible=1;marginBottom=0;" parent="WIyWlLk6GJQsqaUBKTNV-1" vertex="1">
          <mxGeometry x="-1225" y="550" width="250" height="380" as="geometry" />
        </mxCell>
        <mxCell id="0VeXUthnpNNuvw82r98w-22" value="+ ROWS_OF_SELECTABLE_COLORS : int&#xa;+ COLS_OF_SELECTABLE_COLORS : int&#xa;+ COLORS_DISTANCE : float&#xa;+ SELECTED_COLOR_SIZE_INCR : float&#xa;+ DefaultColor : Color&#xa;+ Color : GameObject&#xa;+ SliderRed : InteractionSlider&#xa;+ SliderGreen : InteractionSlider&#xa;+ SliderBlue : InteractionSlider&#xa;+ SliderAlpha : InteractionSlider&#xa;+ RValue : TextMesh&#xa;+ GValue : TextMesh&#xa;+ BValue : TextMesh&#xa;+ AValue : TextMesh&#xa;+ SelectedColor : Color&#xa;- activeColor : GameObject&#xa;- colori : List&lt;GameObject&gt;&#xa;&#xa;&#xa;&#xa;" style="text;strokeColor=none;fillColor=none;align=left;verticalAlign=top;spacingLeft=4;spacingRight=4;overflow=hidden;rotatable=0;points=[[0,0.5],[1,0.5]];portConstraint=eastwest;" parent="0VeXUthnpNNuvw82r98w-21" vertex="1">
          <mxGeometry y="26" width="250" height="244" as="geometry" />
        </mxCell>
        <mxCell id="0VeXUthnpNNuvw82r98w-23" value="" style="line;strokeWidth=1;fillColor=none;align=left;verticalAlign=middle;spacingTop=-1;spacingLeft=3;spacingRight=3;rotatable=0;labelPosition=right;points=[];portConstraint=eastwest;" parent="0VeXUthnpNNuvw82r98w-21" vertex="1">
          <mxGeometry y="270" width="250" height="8" as="geometry" />
        </mxCell>
        <mxCell id="0VeXUthnpNNuvw82r98w-24" value="- Start() : void&#xa;- OnColorSelected(float value) : void&#xa;- OnChangedAlpha(float value) : void&#xa;- OnChangedBlue(float value) : void&#xa;- OnChangedGreen(float value) : void&#xa;- OnChangedRed(float value) : void&#xa;&#xa;" style="text;strokeColor=none;fillColor=none;align=left;verticalAlign=top;spacingLeft=4;spacingRight=4;overflow=hidden;rotatable=0;points=[[0,0.5],[1,0.5]];portConstraint=eastwest;" parent="0VeXUthnpNNuvw82r98w-21" vertex="1">
          <mxGeometry y="278" width="250" height="102" as="geometry" />
        </mxCell>
        <mxCell id="0VeXUthnpNNuvw82r98w-25" value="CreateFile" style="swimlane;fontStyle=1;align=center;verticalAlign=top;childLayout=stackLayout;horizontal=1;startSize=26;horizontalStack=0;resizeParent=1;resizeParentMax=0;resizeLast=0;collapsible=1;marginBottom=0;" parent="WIyWlLk6GJQsqaUBKTNV-1" vertex="1">
          <mxGeometry x="-2120" y="160" width="300" height="260" as="geometry" />
        </mxCell>
        <mxCell id="0VeXUthnpNNuvw82r98w-26" value="+ InputAltezza : InputField&#xa;+ InputLarghezza : InputField&#xa;+ telaDisegnabile : GameObject&#xa;+ continua : Button&#xa;+ camera : Camera&#xa;+ colori : GameObject&#xa;+ strumenti : GameObject&#xa;+ actionController : GameObject&#xa;- file : FileManager&#xa;- autoSize : AutoSize&#xa;&#xa;" style="text;strokeColor=none;fillColor=none;align=left;verticalAlign=top;spacingLeft=4;spacingRight=4;overflow=hidden;rotatable=0;points=[[0,0.5],[1,0.5]];portConstraint=eastwest;" parent="0VeXUthnpNNuvw82r98w-25" vertex="1">
          <mxGeometry y="26" width="300" height="154" as="geometry" />
        </mxCell>
        <mxCell id="0VeXUthnpNNuvw82r98w-27" value="" style="line;strokeWidth=1;fillColor=none;align=left;verticalAlign=middle;spacingTop=-1;spacingLeft=3;spacingRight=3;rotatable=0;labelPosition=right;points=[];portConstraint=eastwest;" parent="0VeXUthnpNNuvw82r98w-25" vertex="1">
          <mxGeometry y="180" width="300" height="8" as="geometry" />
        </mxCell>
        <mxCell id="0VeXUthnpNNuvw82r98w-28" value="- Start() : void&lt;br&gt;+ CreateNew(int imageWidth, int imageHeight) : void&lt;br&gt;+ CreateNewTela() : void&lt;br&gt;&lt;u&gt;+ UnityToPixels(int unityValue) : float&lt;/u&gt;&lt;br&gt;" style="text;strokeColor=none;fillColor=none;align=left;verticalAlign=top;spacingLeft=4;spacingRight=4;overflow=hidden;rotatable=0;points=[[0,0.5],[1,0.5]];portConstraint=eastwest;fontStyle=0;html=1;" parent="0VeXUthnpNNuvw82r98w-25" vertex="1">
          <mxGeometry y="188" width="300" height="72" as="geometry" />
        </mxCell>
        <mxCell id="0VeXUthnpNNuvw82r98w-37" value="1" style="endArrow=open;html=1;endSize=12;startArrow=diamondThin;startSize=14;startFill=1;edgeStyle=orthogonalEdgeStyle;align=left;verticalAlign=bottom;rounded=0;entryX=0.655;entryY=1.06;entryDx=0;entryDy=0;entryPerimeter=0;" parent="WIyWlLk6GJQsqaUBKTNV-1" source="0VeXUthnpNNuvw82r98w-25" target="zkfFHV4jXpPFQw0GAbJ--5" edge="1">
          <mxGeometry x="-0.8347" y="-13" relative="1" as="geometry">
            <mxPoint x="-2380" y="420" as="sourcePoint" />
            <mxPoint x="-2220" y="420" as="targetPoint" />
            <mxPoint as="offset" />
            <Array as="points">
              <mxPoint x="-1956" y="250" />
              <mxPoint x="-1956" y="250" />
            </Array>
          </mxGeometry>
        </mxCell>
        <mxCell id="0VeXUthnpNNuvw82r98w-39" value="DrawRayCast" style="swimlane;fontStyle=1;align=center;verticalAlign=top;childLayout=stackLayout;horizontal=1;startSize=26;horizontalStack=0;resizeParent=1;resizeParentMax=0;resizeLast=0;collapsible=1;marginBottom=0;html=1;" parent="WIyWlLk6GJQsqaUBKTNV-1" vertex="1">
          <mxGeometry x="-440" y="30" width="410" height="250" as="geometry" />
        </mxCell>
        <mxCell id="0VeXUthnpNNuvw82r98w-40" value="+ MAX_BRUSH_SIZE : int&#xa;+ BrushSizeSlider : InteractionSlider&#xa;+ telaDisegnabile : GameObject&#xa;+ leftHand : GameObject&#xa;- brushSize : int&#xa;- hand_model : HandModel&#xa;- leap_hand : Hand&#xa;- controller : Controller&#xa;- color : Color&#xa;&#xa;" style="text;strokeColor=none;fillColor=none;align=left;verticalAlign=top;spacingLeft=4;spacingRight=4;overflow=hidden;rotatable=0;points=[[0,0.5],[1,0.5]];portConstraint=eastwest;" parent="0VeXUthnpNNuvw82r98w-39" vertex="1">
          <mxGeometry y="26" width="410" height="134" as="geometry" />
        </mxCell>
        <mxCell id="0VeXUthnpNNuvw82r98w-41" value="" style="line;strokeWidth=1;fillColor=none;align=left;verticalAlign=middle;spacingTop=-1;spacingLeft=3;spacingRight=3;rotatable=0;labelPosition=right;points=[];portConstraint=eastwest;" parent="0VeXUthnpNNuvw82r98w-39" vertex="1">
          <mxGeometry y="160" width="410" height="8" as="geometry" />
        </mxCell>
        <mxCell id="0VeXUthnpNNuvw82r98w-42" value="- Start() : void&#xa;- Update() : void&#xa;+ DrawCircle(Texture2D tex, Color color, int x, int y, int radius) : Texture2D&#xa;- UpdateBrushSize(float value)&#xa;&#xa;" style="text;strokeColor=none;fillColor=none;align=left;verticalAlign=top;spacingLeft=4;spacingRight=4;overflow=hidden;rotatable=0;points=[[0,0.5],[1,0.5]];portConstraint=eastwest;" parent="0VeXUthnpNNuvw82r98w-39" vertex="1">
          <mxGeometry y="168" width="410" height="82" as="geometry" />
        </mxCell>
        <mxCell id="M-HyiIcxL1wfESy_Ib01-0" value="Exit" style="swimlane;fontStyle=1;align=center;verticalAlign=top;childLayout=stackLayout;horizontal=1;startSize=26;horizontalStack=0;resizeParent=1;resizeParentMax=0;resizeLast=0;collapsible=1;marginBottom=0;" parent="WIyWlLk6GJQsqaUBKTNV-1" vertex="1">
          <mxGeometry x="-2300" y="528" width="160" height="160" as="geometry" />
        </mxCell>
        <mxCell id="M-HyiIcxL1wfESy_Ib01-1" value="+ exitUI : GameObject&#xa;+ hands : GameObject&#xa;- button : InteractionButton&#xa;- prevPress : bool&#xa;- file : FileManager&#xa;" style="text;strokeColor=none;fillColor=none;align=left;verticalAlign=top;spacingLeft=4;spacingRight=4;overflow=hidden;rotatable=0;points=[[0,0.5],[1,0.5]];portConstraint=eastwest;" parent="M-HyiIcxL1wfESy_Ib01-0" vertex="1">
          <mxGeometry y="26" width="160" height="84" as="geometry" />
        </mxCell>
        <mxCell id="M-HyiIcxL1wfESy_Ib01-2" value="" style="line;strokeWidth=1;fillColor=none;align=left;verticalAlign=middle;spacingTop=-1;spacingLeft=3;spacingRight=3;rotatable=0;labelPosition=right;points=[];portConstraint=eastwest;" parent="M-HyiIcxL1wfESy_Ib01-0" vertex="1">
          <mxGeometry y="110" width="160" height="8" as="geometry" />
        </mxCell>
        <mxCell id="M-HyiIcxL1wfESy_Ib01-3" value="- Start() : void&#xa;- Update() : void" style="text;strokeColor=none;fillColor=none;align=left;verticalAlign=top;spacingLeft=4;spacingRight=4;overflow=hidden;rotatable=0;points=[[0,0.5],[1,0.5]];portConstraint=eastwest;" parent="M-HyiIcxL1wfESy_Ib01-0" vertex="1">
          <mxGeometry y="118" width="160" height="42" as="geometry" />
        </mxCell>
        <mxCell id="M-HyiIcxL1wfESy_Ib01-4" value="FileManager" style="swimlane;fontStyle=1;align=center;verticalAlign=top;childLayout=stackLayout;horizontal=1;startSize=26;horizontalStack=0;resizeParent=1;resizeParentMax=0;resizeLast=0;collapsible=1;marginBottom=0;" parent="WIyWlLk6GJQsqaUBKTNV-1" vertex="1">
          <mxGeometry x="-2080" y="510" width="260" height="196" as="geometry" />
        </mxCell>
        <mxCell id="M-HyiIcxL1wfESy_Ib01-5" value="+ WRITE_MODE : int&#xa;+ READ_MODE : int&#xa;+ Path : string&#xa;+ Mode : int&#xa;- path : string&#xa;- mode : string" style="text;strokeColor=none;fillColor=none;align=left;verticalAlign=top;spacingLeft=4;spacingRight=4;overflow=hidden;rotatable=0;points=[[0,0.5],[1,0.5]];portConstraint=eastwest;" parent="M-HyiIcxL1wfESy_Ib01-4" vertex="1">
          <mxGeometry y="26" width="260" height="94" as="geometry" />
        </mxCell>
        <mxCell id="M-HyiIcxL1wfESy_Ib01-6" value="" style="line;strokeWidth=1;fillColor=none;align=left;verticalAlign=middle;spacingTop=-1;spacingLeft=3;spacingRight=3;rotatable=0;labelPosition=right;points=[];portConstraint=eastwest;" parent="M-HyiIcxL1wfESy_Ib01-4" vertex="1">
          <mxGeometry y="120" width="260" height="8" as="geometry" />
        </mxCell>
        <mxCell id="M-HyiIcxL1wfESy_Ib01-7" value="+ FileManager()&#xa;+ GetTexture() : Texture2D&#xa;+ SaveTextureJPG(Teture2D tex) : void&#xa;+ SaveTexturePNG(Teture2D tex) : void" style="text;strokeColor=none;fillColor=none;align=left;verticalAlign=top;spacingLeft=4;spacingRight=4;overflow=hidden;rotatable=0;points=[[0,0.5],[1,0.5]];portConstraint=eastwest;" parent="M-HyiIcxL1wfESy_Ib01-4" vertex="1">
          <mxGeometry y="128" width="260" height="68" as="geometry" />
        </mxCell>
        <mxCell id="M-HyiIcxL1wfESy_Ib01-8" value="Fill" style="swimlane;fontStyle=1;align=center;verticalAlign=top;childLayout=stackLayout;horizontal=1;startSize=26;horizontalStack=0;resizeParent=1;resizeParentMax=0;resizeLast=0;collapsible=1;marginBottom=0;" parent="WIyWlLk6GJQsqaUBKTNV-1" vertex="1">
          <mxGeometry x="-1040" y="1100" width="570" height="170" as="geometry" />
        </mxCell>
        <mxCell id="M-HyiIcxL1wfESy_Ib01-9" value="- hand_model : HandModel&#xa;- leap_hand : Hand&#xa;+ telaDisegnabile : GameObject&#xa;- prevPinch : bool" style="text;strokeColor=none;fillColor=none;align=left;verticalAlign=top;spacingLeft=4;spacingRight=4;overflow=hidden;rotatable=0;points=[[0,0.5],[1,0.5]];portConstraint=eastwest;" parent="M-HyiIcxL1wfESy_Ib01-8" vertex="1">
          <mxGeometry y="26" width="570" height="64" as="geometry" />
        </mxCell>
        <mxCell id="M-HyiIcxL1wfESy_Ib01-10" value="" style="line;strokeWidth=1;fillColor=none;align=left;verticalAlign=middle;spacingTop=-1;spacingLeft=3;spacingRight=3;rotatable=0;labelPosition=right;points=[];portConstraint=eastwest;" parent="M-HyiIcxL1wfESy_Ib01-8" vertex="1">
          <mxGeometry y="90" width="570" height="8" as="geometry" />
        </mxCell>
        <mxCell id="M-HyiIcxL1wfESy_Ib01-11" value="- Start() : void&lt;br&gt;- Update() : void&lt;br&gt;&lt;u&gt;+ FloodFill(Texture2D texture, float tollerance, int x, int y) : void&lt;/u&gt;&lt;u&gt;&lt;br&gt;- ChackValidity(Texture2D texture, int width, int height, Point p, Color sourceColor, float tollerance) : bool&lt;/u&gt;&lt;u&gt;&lt;br&gt;&lt;/u&gt;" style="text;strokeColor=none;fillColor=none;align=left;verticalAlign=top;spacingLeft=4;spacingRight=4;overflow=hidden;rotatable=0;points=[[0,0.5],[1,0.5]];portConstraint=eastwest;html=1;" parent="M-HyiIcxL1wfESy_Ib01-8" vertex="1">
          <mxGeometry y="98" width="570" height="72" as="geometry" />
        </mxCell>
        <mxCell id="M-HyiIcxL1wfESy_Ib01-12" value="&amp;lt;&amp;lt; struct &amp;gt;&amp;gt;&lt;br&gt;Point" style="swimlane;fontStyle=1;align=center;verticalAlign=top;childLayout=stackLayout;horizontal=1;startSize=40;horizontalStack=0;resizeParent=1;resizeParentMax=0;resizeLast=0;collapsible=1;marginBottom=0;html=1;" parent="WIyWlLk6GJQsqaUBKTNV-1" vertex="1">
          <mxGeometry x="-670" y="1340" width="160" height="108" as="geometry" />
        </mxCell>
        <mxCell id="M-HyiIcxL1wfESy_Ib01-13" value="+ x : int&#xa;+ y : int" style="text;strokeColor=none;fillColor=none;align=left;verticalAlign=top;spacingLeft=4;spacingRight=4;overflow=hidden;rotatable=0;points=[[0,0.5],[1,0.5]];portConstraint=eastwest;" parent="M-HyiIcxL1wfESy_Ib01-12" vertex="1">
          <mxGeometry y="40" width="160" height="34" as="geometry" />
        </mxCell>
        <mxCell id="M-HyiIcxL1wfESy_Ib01-14" value="" style="line;strokeWidth=1;fillColor=none;align=left;verticalAlign=middle;spacingTop=-1;spacingLeft=3;spacingRight=3;rotatable=0;labelPosition=right;points=[];portConstraint=eastwest;" parent="M-HyiIcxL1wfESy_Ib01-12" vertex="1">
          <mxGeometry y="74" width="160" height="8" as="geometry" />
        </mxCell>
        <mxCell id="M-HyiIcxL1wfESy_Ib01-15" value="+ Point(int x, int y)&lt;br&gt;&lt;u&gt;&lt;br&gt;&lt;/u&gt;" style="text;strokeColor=none;fillColor=none;align=left;verticalAlign=top;spacingLeft=4;spacingRight=4;overflow=hidden;rotatable=0;points=[[0,0.5],[1,0.5]];portConstraint=eastwest;html=1;" parent="M-HyiIcxL1wfESy_Ib01-12" vertex="1">
          <mxGeometry y="82" width="160" height="26" as="geometry" />
        </mxCell>
        <mxCell id="M-HyiIcxL1wfESy_Ib01-16" value="" style="endArrow=open;startArrow=circlePlus;endFill=0;startFill=0;endSize=8;html=1;entryX=0.5;entryY=0;entryDx=0;entryDy=0;entryPerimeter=0;" parent="WIyWlLk6GJQsqaUBKTNV-1" target="M-HyiIcxL1wfESy_Ib01-12" edge="1">
          <mxGeometry width="160" relative="1" as="geometry">
            <mxPoint x="-590" y="1269" as="sourcePoint" />
            <mxPoint x="-820" y="1210" as="targetPoint" />
          </mxGeometry>
        </mxCell>
        <mxCell id="M-HyiIcxL1wfESy_Ib01-17" value="GetFile" style="swimlane;fontStyle=1;align=center;verticalAlign=top;childLayout=stackLayout;horizontal=1;startSize=26;horizontalStack=0;resizeParent=1;resizeParentMax=0;resizeLast=0;collapsible=1;marginBottom=0;html=1;" parent="WIyWlLk6GJQsqaUBKTNV-1" vertex="1">
          <mxGeometry x="-2300" y="160" width="160" height="210" as="geometry" />
        </mxCell>
        <mxCell id="M-HyiIcxL1wfESy_Ib01-18" value="+ menu :  GameObject&#xa;- showStart : bool&#xa;- file : FileManager&#xa;- texture : Texture2D&#xa;+ telaDisegnabile : GameObject&#xa;+ getSheet : Button&#xa;+ camera : Camera&#xa;- autoSize : AutoSize" style="text;strokeColor=none;fillColor=none;align=left;verticalAlign=top;spacingLeft=4;spacingRight=4;overflow=hidden;rotatable=0;points=[[0,0.5],[1,0.5]];portConstraint=eastwest;" parent="M-HyiIcxL1wfESy_Ib01-17" vertex="1">
          <mxGeometry y="26" width="160" height="124" as="geometry" />
        </mxCell>
        <mxCell id="M-HyiIcxL1wfESy_Ib01-19" value="" style="line;strokeWidth=1;fillColor=none;align=left;verticalAlign=middle;spacingTop=-1;spacingLeft=3;spacingRight=3;rotatable=0;labelPosition=right;points=[];portConstraint=eastwest;" parent="M-HyiIcxL1wfESy_Ib01-17" vertex="1">
          <mxGeometry y="150" width="160" height="8" as="geometry" />
        </mxCell>
        <mxCell id="M-HyiIcxL1wfESy_Ib01-20" value="- Start() : void&#xa;+ OpenFilePanel() : void&#xa;+ hideMenuStart() : void" style="text;strokeColor=none;fillColor=none;align=left;verticalAlign=top;spacingLeft=4;spacingRight=4;overflow=hidden;rotatable=0;points=[[0,0.5],[1,0.5]];portConstraint=eastwest;" parent="M-HyiIcxL1wfESy_Ib01-17" vertex="1">
          <mxGeometry y="158" width="160" height="52" as="geometry" />
        </mxCell>
        <mxCell id="M-HyiIcxL1wfESy_Ib01-22" value="ManageLeft" style="swimlane;fontStyle=1;align=center;verticalAlign=top;childLayout=stackLayout;horizontal=1;startSize=26;horizontalStack=0;resizeParent=1;resizeParentMax=0;resizeLast=0;collapsible=1;marginBottom=0;html=1;" parent="WIyWlLk6GJQsqaUBKTNV-1" vertex="1">
          <mxGeometry x="-330" y="1092" width="190" height="300" as="geometry" />
        </mxCell>
        <mxCell id="M-HyiIcxL1wfESy_Ib01-23" value="- hand_model : HandModel&#xa;- leap_hand : Hand&#xa;- controller : Controller&#xa;+ menu : GameObject&#xa;+ rightHand : GameObject&#xa;+ actionController : GameObject&#xa;- isGrabbing : bool&#xa;- isFaceUp : bool&#xa;- isPinching : bool&#xa;- handIn : bool" style="text;strokeColor=none;fillColor=none;align=left;verticalAlign=top;spacingLeft=4;spacingRight=4;overflow=hidden;rotatable=0;points=[[0,0.5],[1,0.5]];portConstraint=eastwest;" parent="M-HyiIcxL1wfESy_Ib01-22" vertex="1">
          <mxGeometry y="26" width="190" height="154" as="geometry" />
        </mxCell>
        <mxCell id="M-HyiIcxL1wfESy_Ib01-24" value="" style="line;strokeWidth=1;fillColor=none;align=left;verticalAlign=middle;spacingTop=-1;spacingLeft=3;spacingRight=3;rotatable=0;labelPosition=right;points=[];portConstraint=eastwest;" parent="M-HyiIcxL1wfESy_Ib01-22" vertex="1">
          <mxGeometry y="180" width="190" height="8" as="geometry" />
        </mxCell>
        <mxCell id="M-HyiIcxL1wfESy_Ib01-25" value="- Start() : void&#xa;- Update() : void&#xa;+ IsGrabbing() : bool&#xa;+ IsFaceUp() : bool&#xa;+ IsPinching() : bool&#xa;- HandReset() : void&#xa;- HandFinish() : void" style="text;strokeColor=none;fillColor=none;align=left;verticalAlign=top;spacingLeft=4;spacingRight=4;overflow=hidden;rotatable=0;points=[[0,0.5],[1,0.5]];portConstraint=eastwest;" parent="M-HyiIcxL1wfESy_Ib01-22" vertex="1">
          <mxGeometry y="188" width="190" height="112" as="geometry" />
        </mxCell>
        <mxCell id="M-HyiIcxL1wfESy_Ib01-26" value="HandTransitionBehavior" style="swimlane;fontStyle=1;align=center;verticalAlign=top;childLayout=stackLayout;horizontal=1;startSize=26;horizontalStack=0;resizeParent=1;resizeParentMax=0;resizeLast=0;collapsible=1;marginBottom=0;html=1;" parent="WIyWlLk6GJQsqaUBKTNV-1" vertex="1">
          <mxGeometry x="-395" y="960" width="320" height="34" as="geometry" />
        </mxCell>
        <mxCell id="M-HyiIcxL1wfESy_Ib01-28" value="" style="line;strokeWidth=1;fillColor=none;align=left;verticalAlign=middle;spacingTop=-1;spacingLeft=3;spacingRight=3;rotatable=0;labelPosition=right;points=[];portConstraint=eastwest;" parent="M-HyiIcxL1wfESy_Ib01-26" vertex="1">
          <mxGeometry y="26" width="320" height="8" as="geometry" />
        </mxCell>
        <mxCell id="M-HyiIcxL1wfESy_Ib01-31" value="" style="endArrow=open;endFill=1;endSize=12;html=1;exitX=0.5;exitY=0;exitDx=0;exitDy=0;entryX=0.5;entryY=1;entryDx=0;entryDy=0;" parent="WIyWlLk6GJQsqaUBKTNV-1" source="M-HyiIcxL1wfESy_Ib01-22" target="M-HyiIcxL1wfESy_Ib01-26" edge="1">
          <mxGeometry width="160" relative="1" as="geometry">
            <mxPoint x="1575" y="640" as="sourcePoint" />
            <mxPoint x="1505" y="490" as="targetPoint" />
          </mxGeometry>
        </mxCell>
        <mxCell id="BAl78yBo1YUgTFRK2SCL-1" value="1" style="endArrow=open;html=1;endSize=12;startArrow=diamondThin;startSize=14;startFill=1;edgeStyle=orthogonalEdgeStyle;align=left;verticalAlign=bottom;rounded=0;exitX=0.5;exitY=0;exitDx=0;exitDy=0;entryX=0.104;entryY=1;entryDx=0;entryDy=0;entryPerimeter=0;" parent="WIyWlLk6GJQsqaUBKTNV-1" source="M-HyiIcxL1wfESy_Ib01-17" target="zkfFHV4jXpPFQw0GAbJ--5" edge="1">
          <mxGeometry x="-0.8002" y="-10" relative="1" as="geometry">
            <mxPoint x="-2220" y="150" as="sourcePoint" />
            <mxPoint x="-2060" y="150" as="targetPoint" />
            <mxPoint as="offset" />
          </mxGeometry>
        </mxCell>
        <mxCell id="BAl78yBo1YUgTFRK2SCL-5" value="Zoom" style="swimlane;fontStyle=2;align=center;verticalAlign=top;childLayout=stackLayout;horizontal=1;startSize=26;horizontalStack=0;resizeParent=1;resizeLast=0;collapsible=1;marginBottom=0;rounded=0;shadow=0;strokeWidth=1;" parent="WIyWlLk6GJQsqaUBKTNV-1" vertex="1">
          <mxGeometry x="-2300" y="1190" width="160" height="150" as="geometry">
            <mxRectangle x="230" y="140" width="160" height="26" as="alternateBounds" />
          </mxGeometry>
        </mxCell>
        <mxCell id="BAl78yBo1YUgTFRK2SCL-6" value="+ tela : GameObject&#xa;- oldPosition : Vector3 " style="text;align=left;verticalAlign=top;spacingLeft=4;spacingRight=4;overflow=hidden;rotatable=0;points=[[0,0.5],[1,0.5]];portConstraint=eastwest;" parent="BAl78yBo1YUgTFRK2SCL-5" vertex="1">
          <mxGeometry y="26" width="160" height="34" as="geometry" />
        </mxCell>
        <mxCell id="BAl78yBo1YUgTFRK2SCL-7" value="" style="line;html=1;strokeWidth=1;align=left;verticalAlign=middle;spacingTop=-1;spacingLeft=3;spacingRight=3;rotatable=0;labelPosition=right;points=[];portConstraint=eastwest;" parent="BAl78yBo1YUgTFRK2SCL-5" vertex="1">
          <mxGeometry y="60" width="160" height="8" as="geometry" />
        </mxCell>
        <mxCell id="BAl78yBo1YUgTFRK2SCL-8" value="- Start() : void&#xa;- Update() : void&#xa;+ ZoomIn() : void&#xa;+ ZoomOut() : void&#xa;+ NormalizeZoom() : void" style="text;align=left;verticalAlign=top;spacingLeft=4;spacingRight=4;overflow=hidden;rotatable=0;points=[[0,0.5],[1,0.5]];portConstraint=eastwest;" parent="BAl78yBo1YUgTFRK2SCL-5" vertex="1">
          <mxGeometry y="68" width="160" height="82" as="geometry" />
        </mxCell>
        <mxCell id="BAl78yBo1YUgTFRK2SCL-9" value="Undo" style="swimlane;fontStyle=2;align=center;verticalAlign=top;childLayout=stackLayout;horizontal=1;startSize=26;horizontalStack=0;resizeParent=1;resizeLast=0;collapsible=1;marginBottom=0;rounded=0;shadow=0;strokeWidth=1;" parent="WIyWlLk6GJQsqaUBKTNV-1" vertex="1">
          <mxGeometry x="-670" y="30" width="190" height="170" as="geometry">
            <mxRectangle x="230" y="140" width="160" height="26" as="alternateBounds" />
          </mxGeometry>
        </mxCell>
        <mxCell id="BAl78yBo1YUgTFRK2SCL-10" value="- last : bool&#xa;- pressed : bool&#xa;- hand_model : HandModel&#xa;- leap_hand : Hand&#xa;- textures : List&lt;Texture2D&gt;&#xa;+ telaDisegnabile : GameObject" style="text;align=left;verticalAlign=top;spacingLeft=4;spacingRight=4;overflow=hidden;rotatable=0;points=[[0,0.5],[1,0.5]];portConstraint=eastwest;" parent="BAl78yBo1YUgTFRK2SCL-9" vertex="1">
          <mxGeometry y="26" width="190" height="94" as="geometry" />
        </mxCell>
        <mxCell id="BAl78yBo1YUgTFRK2SCL-11" value="" style="line;html=1;strokeWidth=1;align=left;verticalAlign=middle;spacingTop=-1;spacingLeft=3;spacingRight=3;rotatable=0;labelPosition=right;points=[];portConstraint=eastwest;" parent="BAl78yBo1YUgTFRK2SCL-9" vertex="1">
          <mxGeometry y="120" width="190" height="8" as="geometry" />
        </mxCell>
        <mxCell id="BAl78yBo1YUgTFRK2SCL-12" value="- Start() : void&#xa;- Update() : void" style="text;align=left;verticalAlign=top;spacingLeft=4;spacingRight=4;overflow=hidden;rotatable=0;points=[[0,0.5],[1,0.5]];portConstraint=eastwest;" parent="BAl78yBo1YUgTFRK2SCL-9" vertex="1">
          <mxGeometry y="128" width="190" height="42" as="geometry" />
        </mxCell>
        <mxCell id="BAl78yBo1YUgTFRK2SCL-13" value="StartDrawing" style="swimlane;fontStyle=2;align=center;verticalAlign=top;childLayout=stackLayout;horizontal=1;startSize=26;horizontalStack=0;resizeParent=1;resizeLast=0;collapsible=1;marginBottom=0;rounded=0;shadow=0;strokeWidth=1;" parent="WIyWlLk6GJQsqaUBKTNV-1" vertex="1">
          <mxGeometry x="-900" y="30" width="190" height="222" as="geometry">
            <mxRectangle x="230" y="140" width="160" height="26" as="alternateBounds" />
          </mxGeometry>
        </mxCell>
        <mxCell id="BAl78yBo1YUgTFRK2SCL-14" value="+ tela : GameObject&#xa;+ configMenu : GameObject&#xa;+ caricaFoglio : Button&#xa;+ creaNuovaTela : GameObject&#xa;+ hands : GameObject&#xa;+ telaDisegnabile : GameObject&#xa;+ actionController : GameObject&#xa;" style="text;align=left;verticalAlign=top;spacingLeft=4;spacingRight=4;overflow=hidden;rotatable=0;points=[[0,0.5],[1,0.5]];portConstraint=eastwest;" parent="BAl78yBo1YUgTFRK2SCL-13" vertex="1">
          <mxGeometry y="26" width="190" height="104" as="geometry" />
        </mxCell>
        <mxCell id="BAl78yBo1YUgTFRK2SCL-15" value="" style="line;html=1;strokeWidth=1;align=left;verticalAlign=middle;spacingTop=-1;spacingLeft=3;spacingRight=3;rotatable=0;labelPosition=right;points=[];portConstraint=eastwest;" parent="BAl78yBo1YUgTFRK2SCL-13" vertex="1">
          <mxGeometry y="130" width="190" height="10" as="geometry" />
        </mxCell>
        <mxCell id="BAl78yBo1YUgTFRK2SCL-16" value="- Start() : void&#xa;- Update() : void&#xa;+ HideCaricamento() : void&#xa;+ HideNuovaTela() : void&#xa;+ ShowHands() : void" style="text;align=left;verticalAlign=top;spacingLeft=4;spacingRight=4;overflow=hidden;rotatable=0;points=[[0,0.5],[1,0.5]];portConstraint=eastwest;" parent="BAl78yBo1YUgTFRK2SCL-13" vertex="1">
          <mxGeometry y="140" width="190" height="82" as="geometry" />
        </mxCell>
        <mxCell id="BAl78yBo1YUgTFRK2SCL-17" value="ShowMenu" style="swimlane;fontStyle=2;align=center;verticalAlign=top;childLayout=stackLayout;horizontal=1;startSize=26;horizontalStack=0;resizeParent=1;resizeLast=0;collapsible=1;marginBottom=0;rounded=0;shadow=0;strokeWidth=1;" parent="WIyWlLk6GJQsqaUBKTNV-1" vertex="1">
          <mxGeometry x="-1225" y="240" width="180" height="270" as="geometry">
            <mxRectangle x="230" y="140" width="160" height="26" as="alternateBounds" />
          </mxGeometry>
        </mxCell>
        <mxCell id="BAl78yBo1YUgTFRK2SCL-18" value="+ menu : GameObject&#xa;+ configMenu : GameObject&#xa;+ colorPicker : GameObject&#xa;+ instruments : GameObject&#xa;- showStart : bool&#xa;- showConfig : bool&#xa;+ nuovofoglio : Button&#xa;+ hands: GameObject&#xa;+ telaDisegnabile : GameObject&#xa;+ exitMenu : GameObject&#xa;+ info : GameObject" style="text;align=left;verticalAlign=top;spacingLeft=4;spacingRight=4;overflow=hidden;rotatable=0;points=[[0,0.5],[1,0.5]];portConstraint=eastwest;" parent="BAl78yBo1YUgTFRK2SCL-17" vertex="1">
          <mxGeometry y="26" width="180" height="164" as="geometry" />
        </mxCell>
        <mxCell id="BAl78yBo1YUgTFRK2SCL-19" value="" style="line;html=1;strokeWidth=1;align=left;verticalAlign=middle;spacingTop=-1;spacingLeft=3;spacingRight=3;rotatable=0;labelPosition=right;points=[];portConstraint=eastwest;" parent="BAl78yBo1YUgTFRK2SCL-17" vertex="1">
          <mxGeometry y="190" width="180" height="8" as="geometry" />
        </mxCell>
        <mxCell id="BAl78yBo1YUgTFRK2SCL-20" value="- Start() : void&#xa;- Update() : void&#xa;+ ChangeConfig() : void&#xa;+ CreateJson() : void" style="text;align=left;verticalAlign=top;spacingLeft=4;spacingRight=4;overflow=hidden;rotatable=0;points=[[0,0.5],[1,0.5]];portConstraint=eastwest;" parent="BAl78yBo1YUgTFRK2SCL-17" vertex="1">
          <mxGeometry y="198" width="180" height="72" as="geometry" />
        </mxCell>
        <mxCell id="BAl78yBo1YUgTFRK2SCL-21" value="Rotate" style="swimlane;fontStyle=2;align=center;verticalAlign=top;childLayout=stackLayout;horizontal=1;startSize=26;horizontalStack=0;resizeParent=1;resizeLast=0;collapsible=1;marginBottom=0;rounded=0;shadow=0;strokeWidth=1;" parent="WIyWlLk6GJQsqaUBKTNV-1" vertex="1">
          <mxGeometry x="-2110" y="1190" width="180" height="150" as="geometry">
            <mxRectangle x="230" y="140" width="160" height="26" as="alternateBounds" />
          </mxGeometry>
        </mxCell>
        <mxCell id="BAl78yBo1YUgTFRK2SCL-22" value="+ tela : GameObject&#xa;- defaultRotation : Quaternion" style="text;align=left;verticalAlign=top;spacingLeft=4;spacingRight=4;overflow=hidden;rotatable=0;points=[[0,0.5],[1,0.5]];portConstraint=eastwest;" parent="BAl78yBo1YUgTFRK2SCL-21" vertex="1">
          <mxGeometry y="26" width="180" height="34" as="geometry" />
        </mxCell>
        <mxCell id="BAl78yBo1YUgTFRK2SCL-23" value="" style="line;html=1;strokeWidth=1;align=left;verticalAlign=middle;spacingTop=-1;spacingLeft=3;spacingRight=3;rotatable=0;labelPosition=right;points=[];portConstraint=eastwest;" parent="BAl78yBo1YUgTFRK2SCL-21" vertex="1">
          <mxGeometry y="60" width="180" height="8" as="geometry" />
        </mxCell>
        <mxCell id="BAl78yBo1YUgTFRK2SCL-24" value="- Start() : void&#xa;- Update() : void&#xa;+ RotateRight() : void&#xa;+ Rotare Left() : void&#xa;+ NormalizeRotation() : void" style="text;align=left;verticalAlign=top;spacingLeft=4;spacingRight=4;overflow=hidden;rotatable=0;points=[[0,0.5],[1,0.5]];portConstraint=eastwest;" parent="BAl78yBo1YUgTFRK2SCL-21" vertex="1">
          <mxGeometry y="68" width="180" height="82" as="geometry" />
        </mxCell>
        <mxCell id="BAl78yBo1YUgTFRK2SCL-25" value="Paths" style="swimlane;fontStyle=2;align=center;verticalAlign=top;childLayout=stackLayout;horizontal=1;startSize=26;horizontalStack=0;resizeParent=1;resizeLast=0;collapsible=1;marginBottom=0;rounded=0;shadow=0;strokeWidth=1;" parent="WIyWlLk6GJQsqaUBKTNV-1" vertex="1">
          <mxGeometry x="-1753" y="30" width="180" height="60" as="geometry">
            <mxRectangle x="230" y="140" width="160" height="26" as="alternateBounds" />
          </mxGeometry>
        </mxCell>
        <mxCell id="BAl78yBo1YUgTFRK2SCL-26" value="+ path : string" style="text;align=left;verticalAlign=top;spacingLeft=4;spacingRight=4;overflow=hidden;rotatable=0;points=[[0,0.5],[1,0.5]];portConstraint=eastwest;" parent="BAl78yBo1YUgTFRK2SCL-25" vertex="1">
          <mxGeometry y="26" width="180" height="24" as="geometry" />
        </mxCell>
        <mxCell id="BAl78yBo1YUgTFRK2SCL-27" value="" style="line;html=1;strokeWidth=1;align=left;verticalAlign=middle;spacingTop=-1;spacingLeft=3;spacingRight=3;rotatable=0;labelPosition=right;points=[];portConstraint=eastwest;" parent="BAl78yBo1YUgTFRK2SCL-25" vertex="1">
          <mxGeometry y="50" width="180" height="8" as="geometry" />
        </mxCell>
        <mxCell id="BAl78yBo1YUgTFRK2SCL-28" value="OpenStrumenti" style="swimlane;fontStyle=2;align=center;verticalAlign=top;childLayout=stackLayout;horizontal=1;startSize=26;horizontalStack=0;resizeParent=1;resizeLast=0;collapsible=1;marginBottom=0;rounded=0;shadow=0;strokeWidth=1;" parent="WIyWlLk6GJQsqaUBKTNV-1" vertex="1">
          <mxGeometry x="-1430" y="30" width="180" height="150" as="geometry">
            <mxRectangle x="230" y="140" width="160" height="26" as="alternateBounds" />
          </mxGeometry>
        </mxCell>
        <mxCell id="BAl78yBo1YUgTFRK2SCL-29" value="- button : InteractionButton&#xa;- prevPress : bool&#xa;- active : bool&#xa;+ instrument : GameObject&#xa;+ rightHand : GameObject" style="text;align=left;verticalAlign=top;spacingLeft=4;spacingRight=4;overflow=hidden;rotatable=0;points=[[0,0.5],[1,0.5]];portConstraint=eastwest;" parent="BAl78yBo1YUgTFRK2SCL-28" vertex="1">
          <mxGeometry y="26" width="180" height="74" as="geometry" />
        </mxCell>
        <mxCell id="BAl78yBo1YUgTFRK2SCL-30" value="" style="line;html=1;strokeWidth=1;align=left;verticalAlign=middle;spacingTop=-1;spacingLeft=3;spacingRight=3;rotatable=0;labelPosition=right;points=[];portConstraint=eastwest;" parent="BAl78yBo1YUgTFRK2SCL-28" vertex="1">
          <mxGeometry y="100" width="180" height="8" as="geometry" />
        </mxCell>
        <mxCell id="BAl78yBo1YUgTFRK2SCL-31" value="- Start() : void&#xa;- Update() : void&#xa;" style="text;align=left;verticalAlign=top;spacingLeft=4;spacingRight=4;overflow=hidden;rotatable=0;points=[[0,0.5],[1,0.5]];portConstraint=eastwest;" parent="BAl78yBo1YUgTFRK2SCL-28" vertex="1">
          <mxGeometry y="108" width="180" height="42" as="geometry" />
        </mxCell>
        <mxCell id="BAl78yBo1YUgTFRK2SCL-32" value="OpenSalvaConNome" style="swimlane;fontStyle=2;align=center;verticalAlign=top;childLayout=stackLayout;horizontal=1;startSize=26;horizontalStack=0;resizeParent=1;resizeLast=0;collapsible=1;marginBottom=0;rounded=0;shadow=0;strokeWidth=1;" parent="WIyWlLk6GJQsqaUBKTNV-1" vertex="1">
          <mxGeometry x="-2300" y="770" width="240" height="190" as="geometry">
            <mxRectangle x="230" y="140" width="160" height="26" as="alternateBounds" />
          </mxGeometry>
        </mxCell>
        <mxCell id="BAl78yBo1YUgTFRK2SCL-33" value="+ buttonSalva : InteractionButton&#xa;+ buttonSalvaConNome : InteractionButton&#xa;+ telaDisegnabile : GameObject&#xa;- prevPress : bool&#xa;- prevPressConNome : bool&#xa;+ saveFromUI : Button&#xa;- file : FileManager" style="text;align=left;verticalAlign=top;spacingLeft=4;spacingRight=4;overflow=hidden;rotatable=0;points=[[0,0.5],[1,0.5]];portConstraint=eastwest;" parent="BAl78yBo1YUgTFRK2SCL-32" vertex="1">
          <mxGeometry y="26" width="240" height="104" as="geometry" />
        </mxCell>
        <mxCell id="BAl78yBo1YUgTFRK2SCL-34" value="" style="line;html=1;strokeWidth=1;align=left;verticalAlign=middle;spacingTop=-1;spacingLeft=3;spacingRight=3;rotatable=0;labelPosition=right;points=[];portConstraint=eastwest;" parent="BAl78yBo1YUgTFRK2SCL-32" vertex="1">
          <mxGeometry y="130" width="240" height="8" as="geometry" />
        </mxCell>
        <mxCell id="BAl78yBo1YUgTFRK2SCL-35" value="- Start() : void&#xa;- Update() : void&#xa;+ Salva () : void" style="text;align=left;verticalAlign=top;spacingLeft=4;spacingRight=4;overflow=hidden;rotatable=0;points=[[0,0.5],[1,0.5]];portConstraint=eastwest;" parent="BAl78yBo1YUgTFRK2SCL-32" vertex="1">
          <mxGeometry y="138" width="240" height="52" as="geometry" />
        </mxCell>
        <mxCell id="BAl78yBo1YUgTFRK2SCL-36" value="OpenImpostazioni" style="swimlane;fontStyle=2;align=center;verticalAlign=top;childLayout=stackLayout;horizontal=1;startSize=26;horizontalStack=0;resizeParent=1;resizeLast=0;collapsible=1;marginBottom=0;rounded=0;shadow=0;strokeWidth=1;" parent="WIyWlLk6GJQsqaUBKTNV-1" vertex="1">
          <mxGeometry x="-1225" y="30" width="210" height="180" as="geometry">
            <mxRectangle x="230" y="140" width="160" height="26" as="alternateBounds" />
          </mxGeometry>
        </mxCell>
        <mxCell id="BAl78yBo1YUgTFRK2SCL-37" value="- button : InteractionButton&#xa;- prevPress : bool&#xa;+ configurazione_tela : GameObject&#xa;+ hands : GameObject&#xa;+ tela : GameObject&#xa;+ actionController : GameObject&#xa;+ colorPicker : GameObject&#xa;" style="text;align=left;verticalAlign=top;spacingLeft=4;spacingRight=4;overflow=hidden;rotatable=0;points=[[0,0.5],[1,0.5]];portConstraint=eastwest;" parent="BAl78yBo1YUgTFRK2SCL-36" vertex="1">
          <mxGeometry y="26" width="210" height="104" as="geometry" />
        </mxCell>
        <mxCell id="BAl78yBo1YUgTFRK2SCL-38" value="" style="line;html=1;strokeWidth=1;align=left;verticalAlign=middle;spacingTop=-1;spacingLeft=3;spacingRight=3;rotatable=0;labelPosition=right;points=[];portConstraint=eastwest;" parent="BAl78yBo1YUgTFRK2SCL-36" vertex="1">
          <mxGeometry y="130" width="210" height="8" as="geometry" />
        </mxCell>
        <mxCell id="BAl78yBo1YUgTFRK2SCL-39" value="- Start() : void&#xa;- Update() : void" style="text;align=left;verticalAlign=top;spacingLeft=4;spacingRight=4;overflow=hidden;rotatable=0;points=[[0,0.5],[1,0.5]];portConstraint=eastwest;" parent="BAl78yBo1YUgTFRK2SCL-36" vertex="1">
          <mxGeometry y="138" width="210" height="42" as="geometry" />
        </mxCell>
        <mxCell id="BAl78yBo1YUgTFRK2SCL-40" value="OpenExplorer" style="swimlane;fontStyle=2;align=center;verticalAlign=top;childLayout=stackLayout;horizontal=1;startSize=26;horizontalStack=0;resizeParent=1;resizeLast=0;collapsible=1;marginBottom=0;rounded=0;shadow=0;strokeWidth=1;" parent="WIyWlLk6GJQsqaUBKTNV-1" vertex="1">
          <mxGeometry x="-1990" y="790" width="180" height="130" as="geometry">
            <mxRectangle x="230" y="140" width="160" height="26" as="alternateBounds" />
          </mxGeometry>
        </mxCell>
        <mxCell id="BAl78yBo1YUgTFRK2SCL-41" value="- button : InteractionButton&#xa;- prevPress : bool&#xa;- file : FileManager&#xa;" style="text;align=left;verticalAlign=top;spacingLeft=4;spacingRight=4;overflow=hidden;rotatable=0;points=[[0,0.5],[1,0.5]];portConstraint=eastwest;" parent="BAl78yBo1YUgTFRK2SCL-40" vertex="1">
          <mxGeometry y="26" width="180" height="54" as="geometry" />
        </mxCell>
        <mxCell id="BAl78yBo1YUgTFRK2SCL-42" value="" style="line;html=1;strokeWidth=1;align=left;verticalAlign=middle;spacingTop=-1;spacingLeft=3;spacingRight=3;rotatable=0;labelPosition=right;points=[];portConstraint=eastwest;" parent="BAl78yBo1YUgTFRK2SCL-40" vertex="1">
          <mxGeometry y="80" width="180" height="8" as="geometry" />
        </mxCell>
        <mxCell id="BAl78yBo1YUgTFRK2SCL-43" value="- Start() : void&#xa;- Update() : void" style="text;align=left;verticalAlign=top;spacingLeft=4;spacingRight=4;overflow=hidden;rotatable=0;points=[[0,0.5],[1,0.5]];portConstraint=eastwest;" parent="BAl78yBo1YUgTFRK2SCL-40" vertex="1">
          <mxGeometry y="88" width="180" height="42" as="geometry" />
        </mxCell>
        <mxCell id="BAl78yBo1YUgTFRK2SCL-44" value="OpenColori" style="swimlane;fontStyle=2;align=center;verticalAlign=top;childLayout=stackLayout;horizontal=1;startSize=26;horizontalStack=0;resizeParent=1;resizeLast=0;collapsible=1;marginBottom=0;rounded=0;shadow=0;strokeWidth=1;" parent="WIyWlLk6GJQsqaUBKTNV-1" vertex="1">
          <mxGeometry x="-1430" y="240" width="180" height="160" as="geometry">
            <mxRectangle x="230" y="140" width="160" height="26" as="alternateBounds" />
          </mxGeometry>
        </mxCell>
        <mxCell id="BAl78yBo1YUgTFRK2SCL-45" value="- button : InteractionButton&#xa;- prevPress : bool&#xa;- active : bool&#xa;+ colorPicker : GameObject&#xa;+ rightHand : GameObject&#xa;" style="text;align=left;verticalAlign=top;spacingLeft=4;spacingRight=4;overflow=hidden;rotatable=0;points=[[0,0.5],[1,0.5]];portConstraint=eastwest;" parent="BAl78yBo1YUgTFRK2SCL-44" vertex="1">
          <mxGeometry y="26" width="180" height="84" as="geometry" />
        </mxCell>
        <mxCell id="BAl78yBo1YUgTFRK2SCL-46" value="" style="line;html=1;strokeWidth=1;align=left;verticalAlign=middle;spacingTop=-1;spacingLeft=3;spacingRight=3;rotatable=0;labelPosition=right;points=[];portConstraint=eastwest;" parent="BAl78yBo1YUgTFRK2SCL-44" vertex="1">
          <mxGeometry y="110" width="180" height="8" as="geometry" />
        </mxCell>
        <mxCell id="BAl78yBo1YUgTFRK2SCL-47" value="- Start() : void&#xa;- Update() : void" style="text;align=left;verticalAlign=top;spacingLeft=4;spacingRight=4;overflow=hidden;rotatable=0;points=[[0,0.5],[1,0.5]];portConstraint=eastwest;" parent="BAl78yBo1YUgTFRK2SCL-44" vertex="1">
          <mxGeometry y="118" width="180" height="42" as="geometry" />
        </mxCell>
        <mxCell id="BAl78yBo1YUgTFRK2SCL-48" value="MoveCanvas" style="swimlane;fontStyle=2;align=center;verticalAlign=top;childLayout=stackLayout;horizontal=1;startSize=26;horizontalStack=0;resizeParent=1;resizeLast=0;collapsible=1;marginBottom=0;rounded=0;shadow=0;strokeWidth=1;" parent="WIyWlLk6GJQsqaUBKTNV-1" vertex="1">
          <mxGeometry x="-1900" y="1190" width="180" height="220" as="geometry">
            <mxRectangle x="230" y="140" width="160" height="26" as="alternateBounds" />
          </mxGeometry>
        </mxCell>
        <mxCell id="BAl78yBo1YUgTFRK2SCL-49" value="+ tela : GameObject&#xa;- oldPosition : Vector3&#xa;- canMove : bool&#xa;" style="text;align=left;verticalAlign=top;spacingLeft=4;spacingRight=4;overflow=hidden;rotatable=0;points=[[0,0.5],[1,0.5]];portConstraint=eastwest;" parent="BAl78yBo1YUgTFRK2SCL-48" vertex="1">
          <mxGeometry y="26" width="180" height="54" as="geometry" />
        </mxCell>
        <mxCell id="BAl78yBo1YUgTFRK2SCL-50" value="" style="line;html=1;strokeWidth=1;align=left;verticalAlign=middle;spacingTop=-1;spacingLeft=3;spacingRight=3;rotatable=0;labelPosition=right;points=[];portConstraint=eastwest;" parent="BAl78yBo1YUgTFRK2SCL-48" vertex="1">
          <mxGeometry y="80" width="180" height="8" as="geometry" />
        </mxCell>
        <mxCell id="BAl78yBo1YUgTFRK2SCL-51" value="- Start() : void&#xa;- Update() : void&#xa;+ SetCanMove() : void&#xa;+ SetCantMove() : void&#xa;+ MoveUp() : void&#xa;+ MoveDown() : void&#xa;+ MoveRight() : void&#xa;+ MoveLeft() : void&#xa;+ ResetPosition() : void" style="text;align=left;verticalAlign=top;spacingLeft=4;spacingRight=4;overflow=hidden;rotatable=0;points=[[0,0.5],[1,0.5]];portConstraint=eastwest;" parent="BAl78yBo1YUgTFRK2SCL-48" vertex="1">
          <mxGeometry y="88" width="180" height="132" as="geometry" />
        </mxCell>
        <mxCell id="BAl78yBo1YUgTFRK2SCL-52" value="ManageRight" style="swimlane;fontStyle=2;align=center;verticalAlign=top;childLayout=stackLayout;horizontal=1;startSize=26;horizontalStack=0;resizeParent=1;resizeLast=0;collapsible=1;marginBottom=0;rounded=0;shadow=0;strokeWidth=1;" parent="WIyWlLk6GJQsqaUBKTNV-1" vertex="1">
          <mxGeometry x="-900" y="310" width="610" height="570" as="geometry">
            <mxRectangle x="230" y="140" width="160" height="26" as="alternateBounds" />
          </mxGeometry>
        </mxCell>
        <mxCell id="BAl78yBo1YUgTFRK2SCL-53" value="+ MAX_BRUSH_SIZE : int&#xa;+ brushSizeSlider : InteractionSlider&#xa;- brushSize : int&#xa;- hand_model : HandModel&#xa;- leap_hand : Hand&#xa;- controller : Controller&#xa;+ colorPicker : GameObject&#xa;- color : Color&#xa;+ actionController : GameObject&#xa;+ leftHand : GameObject&#xa;+ tela : GameObject&#xa;- prevPinch : bool&#xa;- pinch : bool&#xa;- grab : bool&#xa;- pinchDistance : float&#xa;- palmNormal : Vector&#xa;- handIn : bool&#xa;- brushValue : float" style="text;align=left;verticalAlign=top;spacingLeft=4;spacingRight=4;overflow=hidden;rotatable=0;points=[[0,0.5],[1,0.5]];portConstraint=eastwest;" parent="BAl78yBo1YUgTFRK2SCL-52" vertex="1">
          <mxGeometry y="26" width="610" height="274" as="geometry" />
        </mxCell>
        <mxCell id="BAl78yBo1YUgTFRK2SCL-54" value="" style="line;html=1;strokeWidth=1;align=left;verticalAlign=middle;spacingTop=-1;spacingLeft=3;spacingRight=3;rotatable=0;labelPosition=right;points=[];portConstraint=eastwest;" parent="BAl78yBo1YUgTFRK2SCL-52" vertex="1">
          <mxGeometry y="300" width="610" height="8" as="geometry" />
        </mxCell>
        <mxCell id="BAl78yBo1YUgTFRK2SCL-55" value="- Start() : void&#xa;- Update() : void&#xa;+ IsHandPinching() : bool&#xa;+ IsHandGrabbing() : bool&#xa;+ GetPinchDistance : float&#xa;+ GetPalmNormal() : Vector&#xa;+ Draw() : void&#xa;+ DrawCircle(tex : Texture2D, color: Color, x : int, y : int, radius : int) : Texture2D&#xa;-  UpdateBrushsize(value : float) : void&#xa;+ ChangeColor() : void&#xa;+ SetEraser() : void&#xa;+ SetPen() : void&#xa;+ GetEraser() : bool&#xa;+ Fill() : void&#xa;+ FloodFill(texture : Texture2D, tollerance : float, x : int, y : int) : void&#xa;+ CheckValidity(texture : Texture2D, width : int, height : int, p : Point, sourceColor : Color, tollerance: float) : bool&#xa;- HandReset() : void&#xa;- HandFinish() : void" style="text;align=left;verticalAlign=top;spacingLeft=4;spacingRight=4;overflow=hidden;rotatable=0;points=[[0,0.5],[1,0.5]];portConstraint=eastwest;" parent="BAl78yBo1YUgTFRK2SCL-52" vertex="1">
          <mxGeometry y="308" width="610" height="262" as="geometry" />
        </mxCell>
        <mxCell id="BAl78yBo1YUgTFRK2SCL-56" value="1" style="endArrow=open;html=1;endSize=12;startArrow=diamondThin;startSize=14;startFill=1;edgeStyle=orthogonalEdgeStyle;align=left;verticalAlign=bottom;rounded=0;exitX=1;exitY=0.5;exitDx=0;exitDy=0;" parent="WIyWlLk6GJQsqaUBKTNV-1" source="M-HyiIcxL1wfESy_Ib01-0" target="M-HyiIcxL1wfESy_Ib01-5" edge="1">
          <mxGeometry x="-1" y="3" relative="1" as="geometry">
            <mxPoint x="-2210" y="490" as="sourcePoint" />
            <mxPoint x="-2220" y="390" as="targetPoint" />
          </mxGeometry>
        </mxCell>
        <mxCell id="BAl78yBo1YUgTFRK2SCL-58" value="1" style="endArrow=open;html=1;endSize=12;startArrow=diamondThin;startSize=14;startFill=1;edgeStyle=orthogonalEdgeStyle;align=left;verticalAlign=bottom;rounded=0;exitX=0;exitY=0.5;exitDx=0;exitDy=0;entryX=1.001;entryY=0.655;entryDx=0;entryDy=0;entryPerimeter=0;" parent="WIyWlLk6GJQsqaUBKTNV-1" source="0VeXUthnpNNuvw82r98w-18" target="M-HyiIcxL1wfESy_Ib01-5" edge="1">
          <mxGeometry x="-0.4937" y="-8" relative="1" as="geometry">
            <mxPoint x="-1930" y="510" as="sourcePoint" />
            <mxPoint x="-1770" y="510" as="targetPoint" />
            <mxPoint as="offset" />
          </mxGeometry>
        </mxCell>
        <mxCell id="BAl78yBo1YUgTFRK2SCL-59" value="1" style="endArrow=open;html=1;endSize=12;startArrow=diamondThin;startSize=14;startFill=1;edgeStyle=orthogonalEdgeStyle;align=left;verticalAlign=bottom;rounded=0;exitX=0.458;exitY=0;exitDx=0;exitDy=0;exitPerimeter=0;entryX=0.097;entryY=0.988;entryDx=0;entryDy=0;entryPerimeter=0;" parent="WIyWlLk6GJQsqaUBKTNV-1" source="BAl78yBo1YUgTFRK2SCL-32" target="M-HyiIcxL1wfESy_Ib01-7" edge="1">
          <mxGeometry x="-1" y="-10" relative="1" as="geometry">
            <mxPoint x="-1930" y="720" as="sourcePoint" />
            <mxPoint x="-2050" y="710" as="targetPoint" />
            <mxPoint as="offset" />
          </mxGeometry>
        </mxCell>
        <mxCell id="BAl78yBo1YUgTFRK2SCL-61" value="1" style="endArrow=open;html=1;endSize=12;startArrow=diamondThin;startSize=14;startFill=1;edgeStyle=orthogonalEdgeStyle;align=left;verticalAlign=bottom;rounded=0;exitX=0.333;exitY=0;exitDx=0;exitDy=0;exitPerimeter=0;entryX=0.574;entryY=1.002;entryDx=0;entryDy=0;entryPerimeter=0;" parent="WIyWlLk6GJQsqaUBKTNV-1" source="BAl78yBo1YUgTFRK2SCL-40" target="M-HyiIcxL1wfESy_Ib01-7" edge="1">
          <mxGeometry x="-1" y="-10" relative="1" as="geometry">
            <mxPoint x="-1970" y="750" as="sourcePoint" />
            <mxPoint x="-1810" y="750" as="targetPoint" />
            <mxPoint as="offset" />
          </mxGeometry>
        </mxCell>
        <mxCell id="BAl78yBo1YUgTFRK2SCL-62" value="1" style="endArrow=open;html=1;endSize=12;startArrow=diamondThin;startSize=14;startFill=1;edgeStyle=orthogonalEdgeStyle;align=left;verticalAlign=bottom;rounded=0;entryX=0.423;entryY=0;entryDx=0;entryDy=0;entryPerimeter=0;exitX=0.467;exitY=1;exitDx=0;exitDy=0;exitPerimeter=0;" parent="WIyWlLk6GJQsqaUBKTNV-1" source="0VeXUthnpNNuvw82r98w-28" target="M-HyiIcxL1wfESy_Ib01-4" edge="1">
          <mxGeometry x="-0.5995" y="10" relative="1" as="geometry">
            <mxPoint x="-1980" y="430" as="sourcePoint" />
            <mxPoint x="-1820" y="400" as="targetPoint" />
            <mxPoint as="offset" />
          </mxGeometry>
        </mxCell>
        <mxCell id="BAl78yBo1YUgTFRK2SCL-63" value="1" style="endArrow=open;html=1;endSize=12;startArrow=diamondThin;startSize=14;startFill=1;edgeStyle=orthogonalEdgeStyle;align=left;verticalAlign=bottom;rounded=0;entryX=0.5;entryY=0;entryDx=0;entryDy=0;exitX=0.5;exitY=1;exitDx=0;exitDy=0;exitPerimeter=0;" parent="WIyWlLk6GJQsqaUBKTNV-1" source="M-HyiIcxL1wfESy_Ib01-20" target="M-HyiIcxL1wfESy_Ib01-0" edge="1">
          <mxGeometry x="-0.7468" y="10" relative="1" as="geometry">
            <mxPoint x="-2220" y="380" as="sourcePoint" />
            <mxPoint x="-2190" y="500" as="targetPoint" />
            <mxPoint as="offset" />
          </mxGeometry>
        </mxCell>
        <mxCell id="FQBeLtVU9E-2zMcjHEF5-1" value="" style="endArrow=open;endFill=1;endSize=12;html=1;entryX=0.237;entryY=-0.001;entryDx=0;entryDy=0;entryPerimeter=0;exitX=0.95;exitY=1.005;exitDx=0;exitDy=0;exitPerimeter=0;" edge="1" parent="WIyWlLk6GJQsqaUBKTNV-1" source="BAl78yBo1YUgTFRK2SCL-55" target="M-HyiIcxL1wfESy_Ib01-26">
          <mxGeometry width="160" relative="1" as="geometry">
            <mxPoint x="-339" y="881" as="sourcePoint" />
            <mxPoint x="-800" y="870" as="targetPoint" />
          </mxGeometry>
        </mxCell>
        <mxCell id="FQBeLtVU9E-2zMcjHEF5-2" value="&lt;div align=&quot;left&quot;&gt;Le classi presenti nel diagrmamma a cui non è esplicitamente indicata una eriditarietà, estendono la classe MonoBehaviour.&lt;/div&gt;&lt;div align=&quot;left&quot;&gt;Eccezione fatta per le classi:&lt;/div&gt;&lt;div align=&quot;left&quot;&gt;&amp;nbsp;- &lt;br&gt;&lt;/div&gt;" style="rounded=0;strokeWidth=1;fontSize=14;align=left;whiteSpace=wrap;html=1;labelBorderColor=none;labelBackgroundColor=none;" vertex="1" parent="WIyWlLk6GJQsqaUBKTNV-1">
          <mxGeometry x="-1640" y="1360" width="650" height="220" as="geometry" />
        </mxCell>
      </root>
    </mxGraphModel>
  </diagram>
</mxfile>
